<?xml version="1.0" encoding="UTF-8"?>
<svg id="Capa_2" data-name="Capa 2" xmlns="http://www.w3.org/2000/svg" viewBox="0 0 811.49 826.67">
  <defs>
    <style>
      .cls-1 {
        fill: none;
        stroke: #8f95b0;
        stroke-miterlimit: 10;
        stroke-width: 80px;
      }

      .cls-2 {
        fill: #cbcddd;
      }

      .cls-2, .cls-3 {
        stroke-width: 0px;
      }

      .cls-3 {
        fill: #5d7596;
      }
    </style>
  </defs>
  <g id="Capa_2-2">
    <ellipse class="cls-1" cx="429.85" cy="459.7" rx="341.63" ry="326.98"/>
    <path id="check" class="cls-2" d="M597.36,0s-252.06,281.39-297.71,605.11h-95.46S127.74,436.15,0,343.64l132.52-1.12s60.33,45.67,102.94,127.57c0,0,26.56-195.34,229.09-470.08h132.81Z"/>
    <g id="brain">
      <path class="cls-3" d="M780.75,516.97l-10.45-30.43-16.16-13.83-7.6-38.57-37.06-21.83-2.85-34.94-21.86-16.74-30.41-8.73-9.5-21.11-33.26-12.37-26.93-15.28-81.41-14.56-70.85.81s-95.05,191.8-103.45,317.25h108.91l109.94,133.62h40.84l-49.66-101.41c16.06,18.85,49.74,37.78,120.32,31.28,50.81-4.68,49.63-63.49,26.31-63.49h66.62l28.51-23.29-6.65-44.4,6.65-21.98Z"/>
    </g>
  </g>
</svg>